<mxfile host="app.diagrams.net" modified="2024-01-03T15:31:07.301Z" agent="Mozilla/5.0 (Windows NT 10.0; Win64; x64) AppleWebKit/537.36 (KHTML, like Gecko) Chrome/120.0.0.0 Safari/537.36" etag="aE6UL09yHkI0w0kHcq5a" version="22.1.16" type="github">
  <diagram name="第 1 页" id="wpd3_MMEukRv_-CBWu5s">
    <mxGraphModel dx="1050" dy="530" grid="1" gridSize="10" guides="1" tooltips="1" connect="1" arrows="1" fold="1" page="1" pageScale="1" pageWidth="827" pageHeight="1169" math="0" shadow="0">
      <root>
        <mxCell id="0" />
        <mxCell id="1" parent="0" />
        <mxCell id="SZtRRadZ_fEPg7Zaf4uF-1" value="a" style="ellipse;whiteSpace=wrap;html=1;" vertex="1" parent="1">
          <mxGeometry x="260" y="280" width="60" height="50" as="geometry" />
        </mxCell>
        <mxCell id="SZtRRadZ_fEPg7Zaf4uF-2" value="b" style="ellipse;whiteSpace=wrap;html=1;" vertex="1" parent="1">
          <mxGeometry x="400" y="280" width="50" height="45" as="geometry" />
        </mxCell>
        <mxCell id="SZtRRadZ_fEPg7Zaf4uF-3" value="a+3b" style="ellipse;whiteSpace=wrap;html=1;" vertex="1" parent="1">
          <mxGeometry x="280" y="150" width="50" height="45" as="geometry" />
        </mxCell>
        <mxCell id="SZtRRadZ_fEPg7Zaf4uF-4" value="2a+4b" style="ellipse;whiteSpace=wrap;html=1;" vertex="1" parent="1">
          <mxGeometry x="410" y="150" width="50" height="45" as="geometry" />
        </mxCell>
        <mxCell id="SZtRRadZ_fEPg7Zaf4uF-6" value="" style="endArrow=none;html=1;rounded=0;entryX=0.5;entryY=1;entryDx=0;entryDy=0;exitX=0.5;exitY=0;exitDx=0;exitDy=0;" edge="1" parent="1" source="SZtRRadZ_fEPg7Zaf4uF-1" target="SZtRRadZ_fEPg7Zaf4uF-3">
          <mxGeometry width="50" height="50" relative="1" as="geometry">
            <mxPoint x="270" y="260" as="sourcePoint" />
            <mxPoint x="320" y="210" as="targetPoint" />
          </mxGeometry>
        </mxCell>
        <mxCell id="SZtRRadZ_fEPg7Zaf4uF-7" value="" style="endArrow=none;html=1;rounded=0;entryX=0.5;entryY=1;entryDx=0;entryDy=0;exitX=1;exitY=0;exitDx=0;exitDy=0;" edge="1" parent="1" source="SZtRRadZ_fEPg7Zaf4uF-1" target="SZtRRadZ_fEPg7Zaf4uF-4">
          <mxGeometry width="50" height="50" relative="1" as="geometry">
            <mxPoint x="140" y="290" as="sourcePoint" />
            <mxPoint x="190" y="240" as="targetPoint" />
          </mxGeometry>
        </mxCell>
        <mxCell id="SZtRRadZ_fEPg7Zaf4uF-8" value="" style="endArrow=none;html=1;rounded=0;entryX=1;entryY=1;entryDx=0;entryDy=0;exitX=0;exitY=0;exitDx=0;exitDy=0;" edge="1" parent="1" source="SZtRRadZ_fEPg7Zaf4uF-2" target="SZtRRadZ_fEPg7Zaf4uF-3">
          <mxGeometry width="50" height="50" relative="1" as="geometry">
            <mxPoint x="180" y="300" as="sourcePoint" />
            <mxPoint x="230" y="250" as="targetPoint" />
          </mxGeometry>
        </mxCell>
        <mxCell id="SZtRRadZ_fEPg7Zaf4uF-9" value="" style="endArrow=none;html=1;rounded=0;exitX=0.5;exitY=0;exitDx=0;exitDy=0;entryX=1;entryY=1;entryDx=0;entryDy=0;" edge="1" parent="1" source="SZtRRadZ_fEPg7Zaf4uF-2" target="SZtRRadZ_fEPg7Zaf4uF-4">
          <mxGeometry width="50" height="50" relative="1" as="geometry">
            <mxPoint x="130" y="260" as="sourcePoint" />
            <mxPoint x="430" y="200" as="targetPoint" />
          </mxGeometry>
        </mxCell>
        <mxCell id="SZtRRadZ_fEPg7Zaf4uF-10" value="1" style="text;html=1;strokeColor=none;fillColor=none;align=center;verticalAlign=middle;whiteSpace=wrap;rounded=0;" vertex="1" parent="1">
          <mxGeometry x="250" y="240" width="60" height="30" as="geometry" />
        </mxCell>
        <mxCell id="SZtRRadZ_fEPg7Zaf4uF-11" value="2" style="text;html=1;align=center;verticalAlign=middle;resizable=0;points=[];autosize=1;strokeColor=none;fillColor=none;" vertex="1" parent="1">
          <mxGeometry x="325" y="268" width="30" height="30" as="geometry" />
        </mxCell>
        <mxCell id="SZtRRadZ_fEPg7Zaf4uF-12" value="3" style="text;html=1;align=center;verticalAlign=middle;resizable=0;points=[];autosize=1;strokeColor=none;fillColor=none;" vertex="1" parent="1">
          <mxGeometry x="335" y="198" width="30" height="30" as="geometry" />
        </mxCell>
        <mxCell id="SZtRRadZ_fEPg7Zaf4uF-13" value="4" style="text;html=1;align=center;verticalAlign=middle;resizable=0;points=[];autosize=1;strokeColor=none;fillColor=none;" vertex="1" parent="1">
          <mxGeometry x="435" y="228" width="30" height="30" as="geometry" />
        </mxCell>
        <mxCell id="SZtRRadZ_fEPg7Zaf4uF-15" value="a+3b+4a+8b=5a+11b=a" style="text;html=1;align=center;verticalAlign=middle;resizable=0;points=[];autosize=1;strokeColor=none;fillColor=none;" vertex="1" parent="1">
          <mxGeometry x="195" y="338" width="150" height="30" as="geometry" />
        </mxCell>
        <mxCell id="SZtRRadZ_fEPg7Zaf4uF-16" value="3a+9b+8a+16b=11a+25b=b" style="text;html=1;align=center;verticalAlign=middle;resizable=0;points=[];autosize=1;strokeColor=none;fillColor=none;" vertex="1" parent="1">
          <mxGeometry x="335" y="328" width="170" height="30" as="geometry" />
        </mxCell>
        <mxCell id="SZtRRadZ_fEPg7Zaf4uF-17" value="4a+11b=0&lt;br&gt;11a+24b=0&lt;br&gt;" style="text;html=1;align=center;verticalAlign=middle;resizable=0;points=[];autosize=1;strokeColor=none;fillColor=none;" vertex="1" parent="1">
          <mxGeometry x="250" y="373" width="80" height="40" as="geometry" />
        </mxCell>
      </root>
    </mxGraphModel>
  </diagram>
</mxfile>
